<svg xmlns="http://www.w3.org/2000/svg" width="520" height="240" viewBox="0 0 520 240"><rect width="100%" height="100%" fill="#DDDDDD"/><path fill="#999999" d="m118.295 102.785-1.76 10.39q1.66-.35 3.17-.5 1.52-.16 2.94-.16 3.93 0 6.93 1.17 3 1.18 5.04 3.25 2.03 2.07 3.07 4.84 1.03 2.78 1.03 5.99 0 3.97-1.39 7.24-1.4 3.28-3.88 5.61-2.49 2.33-5.89 3.61-3.4 1.27-7.4 1.27-2.34 0-4.45-.48-2.1-.48-3.95-1.29-1.84-.82-3.41-1.87-1.57-1.05-2.82-2.22l2.63-3.63q.82-1.17 2.17-1.17.86 0 1.76.55.9.56 2.05 1.21 1.16.66 2.73 1.21 1.57.55 3.78.55 2.34 0 4.14-.76 1.79-.76 2.98-2.12t1.79-3.24q.61-1.88.61-4.09 0-4.07-2.37-6.37-2.36-2.29-6.98-2.29-3.56 0-7.28 1.31l-5.31-1.52 4.14-24.22h24.63v3.63q0 1.82-1.14 2.96t-3.86 1.14h-13.7Zm45.3 34.22h12.8q1.38 0 2.19.78t.81 2.05v5.11h-34.22v-2.83q0-.86.36-1.81.36-.95 1.15-1.71l15.15-15.18q1.9-1.93 3.4-3.69t2.5-3.48q1-1.73 1.53-3.51.54-1.77.54-3.74 0-1.79-.52-3.16-.52-1.36-1.47-2.29-.94-.93-2.27-1.4-1.33-.46-2.99-.46-1.51 0-2.81.43-1.29.43-2.29 1.21-1 .77-1.69 1.81-.69 1.03-1.04 2.27-.58 1.59-1.52 2.11-.93.52-2.69.24l-4.48-.79q.52-3.59 2-6.3t3.71-4.52q2.22-1.81 5.1-2.72 2.88-.92 6.2-.92 3.45 0 6.31 1.02 2.86 1.02 4.9 2.88 2.03 1.86 3.17 4.48 1.14 2.63 1.14 5.83 0 2.76-.81 5.11-.81 2.35-2.17 4.49-1.37 2.13-3.19 4.14-1.83 2-3.83 4.07l-11.25 11.49q1.62-.49 3.22-.75 1.61-.26 3.06-.26Zm57.27-17q0 6.52-1.4 11.33-1.4 4.81-3.86 7.95-2.47 3.14-5.83 4.68-3.37 1.53-7.27 1.53-3.89 0-7.22-1.53-3.33-1.54-5.78-4.68-2.45-3.14-3.83-7.95-1.38-4.81-1.38-11.33 0-6.56 1.38-11.35 1.38-4.8 3.83-7.94 2.45-3.14 5.78-4.67 3.33-1.54 7.22-1.54 3.9 0 7.27 1.54 3.36 1.53 5.83 4.67 2.46 3.14 3.86 7.94 1.4 4.79 1.4 11.35Zm-8.8 0q0-5.42-.79-8.97-.8-3.56-2.12-5.66-1.33-2.11-3.06-2.95-1.72-.85-3.59-.85-1.82 0-3.53.85-1.71.84-3.02 2.95-1.31 2.1-2.09 5.66-.77 3.55-.77 8.97 0 5.41.77 8.97.78 3.55 2.09 5.65 1.31 2.11 3.02 2.95 1.71.85 3.53.85 1.87 0 3.59-.85 1.73-.84 3.06-2.95 1.32-2.1 2.12-5.65.79-3.56.79-8.97Zm63.58 13.52-4.52 4.45-11.69-11.69-11.8 11.76-4.52-4.45 11.8-11.83-11.25-11.25 4.49-4.49 11.24 11.25 11.18-11.18 4.56 4.49-11.22 11.21 11.73 11.73Zm41.54 3.48h12.8q1.38 0 2.19.78t.81 2.05v5.11h-34.22v-2.83q0-.86.36-1.81.36-.95 1.16-1.71l15.14-15.18q1.9-1.93 3.4-3.69t2.5-3.48q1-1.73 1.54-3.51.53-1.77.53-3.74 0-1.79-.52-3.16-.51-1.36-1.46-2.29-.95-.93-2.28-1.4-1.33-.46-2.98-.46-1.52 0-2.81.43-1.3.43-2.3 1.21-1 .77-1.69 1.81-.69 1.03-1.03 2.27-.59 1.59-1.52 2.11-.93.52-2.69.24l-4.49-.79q.52-3.59 2-6.3 1.49-2.71 3.71-4.52 2.23-1.81 5.11-2.72 2.88-.92 6.19-.92 3.45 0 6.31 1.02 2.87 1.02 4.9 2.88 2.04 1.86 3.18 4.48 1.14 2.63 1.14 5.83 0 2.76-.82 5.11-.81 2.35-2.17 4.49-1.36 2.13-3.19 4.14-1.83 2-3.83 4.07l-11.25 11.49q1.62-.49 3.23-.75 1.6-.26 3.05-.26Zm28.36-10.86h15.18v-16.32q0-2.31.31-5.11l-15.49 21.43Zm22.6 0h6.28v4.93q0 .69-.45 1.19t-1.28.5h-4.55v12.18h-7.42v-12.18h-21.04q-.87 0-1.52-.53-.66-.54-.83-1.33l-.9-4.31 23.64-31.57h8.07v31.12Zm46.33-6.14q0 6.52-1.4 11.33-1.39 4.81-3.86 7.95-2.47 3.14-5.83 4.68-3.36 1.53-7.26 1.53t-7.23-1.53q-3.33-1.54-5.78-4.68-2.45-3.14-3.83-7.95-1.38-4.81-1.38-11.33 0-6.56 1.38-11.35 1.38-4.8 3.83-7.94 2.45-3.14 5.78-4.67 3.33-1.54 7.23-1.54 3.9 0 7.26 1.54 3.36 1.53 5.83 4.67 2.47 3.14 3.86 7.94 1.4 4.79 1.4 11.35Zm-8.8 0q0-5.42-.79-8.97-.79-3.56-2.12-5.66-1.33-2.11-3.05-2.95-1.73-.85-3.59-.85-1.83 0-3.54.85-1.71.84-3.02 2.95-1.31 2.1-2.08 5.66-.78 3.55-.78 8.97 0 5.41.78 8.97.77 3.55 2.08 5.65 1.31 2.11 3.02 2.95 1.71.85 3.54.85 1.86 0 3.59-.85 1.72-.84 3.05-2.95 1.33-2.1 2.12-5.65.79-3.56.79-8.97Z"/></svg>